<svg width="31" height="31" viewBox="0 0 31 31" fill="none" xmlns="http://www.w3.org/2000/svg">
<circle opacity="0.3" cx="15.5" cy="15.5" r="15" stroke="white"/>
<path d="M18.0834 8.40405H12.9167C11.49 8.40405 10.3334 9.56007 10.3334 10.9861V16.1501C10.3334 17.5762 11.49 18.7322 12.9167 18.7322H18.0834C19.5101 18.7322 20.6667 17.5762 20.6667 16.1501V10.9861C20.6667 9.56007 19.5101 8.40405 18.0834 8.40405Z" stroke="white" stroke-linecap="round" stroke-linejoin="round"/>
<path d="M17.5659 13.2436C17.6297 13.6734 17.5562 14.1125 17.356 14.4982C17.1558 14.884 16.8391 15.1968 16.4508 15.3922C16.0625 15.5876 15.6225 15.6556 15.1933 15.5865C14.7641 15.5175 14.3676 15.3149 14.0603 15.0076C13.7529 14.7003 13.5503 14.304 13.4812 13.8749C13.4121 13.4458 13.4802 13.0059 13.6756 12.6177C13.871 12.2295 14.1839 11.9128 14.5698 11.7127C14.9556 11.5125 15.3948 11.4391 15.8248 11.5028C16.2634 11.5678 16.6694 11.7722 16.983 12.0856C17.2965 12.3991 17.5009 12.8051 17.5659 13.2436Z" stroke="white" stroke-linecap="round" stroke-linejoin="round"/>
<path d="M18.3413 10.728H18.3457" stroke="white" stroke-linecap="round" stroke-linejoin="round"/>
</svg>
