<svg width="16" height="14" viewBox="0 0 16 14" fill="none" xmlns="http://www.w3.org/2000/svg">
<path d="M16 5.26331C16 2.72875 13.938 0.666748 11.4034 0.666748H4.59656C2.062 0.666779 0 2.72878 0 5.26334C0 6.01178 0.608906 6.62069 1.35734 6.62069H2.65297L1.71491 8.745C1.38341 9.49575 1.21531 10.2925 1.21531 11.1132V11.9837C1.21531 12.9207 1.97769 13.6831 2.91478 13.6831H13.085C14.0221 13.6831 14.7845 12.9207 14.7845 11.9837V11.1132C14.7845 10.2925 14.6164 9.49575 14.2848 8.745L13.3468 6.62069H14.6426C15.3911 6.62065 16 6.01178 16 5.26331ZM4.59656 1.71475H11.4034V1.71478C12.8795 1.71478 14.1477 2.62078 14.6818 3.90578H11.6619C11.4038 3.63862 11.0422 3.472 10.6423 3.472H5.35769C4.95703 3.472 4.59491 3.63928 4.33669 3.90728C4.32662 3.90672 4.31666 3.90575 4.30647 3.90575H1.31819C1.85225 2.62072 3.12053 1.71475 4.59656 1.71475ZM1.35734 5.57262C1.18678 5.57262 1.04803 5.4339 1.04803 5.26331C1.04803 5.15903 1.05281 5.05584 1.06169 4.95381H3.93922V5.35828C3.93922 5.47647 3.84303 5.57259 3.72487 5.57259H1.35734V5.57262ZM13.7365 11.1131V11.9836C13.7365 12.3427 13.4443 12.635 13.085 12.635H2.91478C2.55559 12.635 2.26334 12.3428 2.26334 11.9836V11.1131C2.26334 10.4392 2.40138 9.78481 2.67362 9.16828L3.79972 6.61825C4.46109 6.57937 4.98728 6.02922 4.98728 5.35831V4.89056C4.98728 4.68628 5.15347 4.52009 5.35772 4.52009H10.6423C10.8466 4.52009 11.0127 4.68628 11.0127 4.89056V5.35831C11.0127 6.02915 11.5387 6.57928 12.2 6.61825L13.3261 9.16834C13.5984 9.78481 13.7365 10.4391 13.7365 11.1131ZM12.2752 5.57265V5.57262C12.157 5.57262 12.0608 5.4765 12.0608 5.35831V4.95384H14.9383C14.9472 5.05587 14.952 5.15906 14.952 5.26337C14.952 5.43394 14.8133 5.57269 14.6427 5.57269H12.2752V5.57265Z" fill="white"/>
</svg>
