<svg width="31" height="31" viewBox="0 0 31 31" fill="none" xmlns="http://www.w3.org/2000/svg">
<circle opacity="0.3" cx="15.5" cy="15.5" r="15" stroke="white"/>
<path d="M20.6666 9.44196C20.1718 9.79079 19.624 10.0576 19.0443 10.2321C18.7331 9.87446 18.3196 9.621 17.8596 9.50596C17.3996 9.39092 16.9153 9.41986 16.4723 9.58886C16.0293 9.75786 15.649 10.0588 15.3826 10.4509C15.1163 10.843 14.9769 11.3074 14.9833 11.7813V12.2977C14.0753 12.3213 13.1756 12.12 12.3643 11.7118C11.553 11.3037 10.8553 10.7013 10.3333 9.95837C10.3333 9.95837 8.26659 14.6061 12.9166 16.6717C11.8525 17.3937 10.585 17.7557 9.29993 17.7046C13.9499 20.2866 19.6333 17.7046 19.6333 11.7658C19.6328 11.622 19.6189 11.4785 19.5919 11.3372C20.1192 10.8174 20.4914 10.1612 20.6666 9.44196V9.44196Z" stroke="white" stroke-linecap="round" stroke-linejoin="round"/>
</svg>
