<svg width="18" height="18" viewBox="0 0 18 18" fill="none" xmlns="http://www.w3.org/2000/svg">
<path d="M9 18C4.03724 18 0 13.9628 0 9C0 4.03724 4.03724 0 9 0C13.9628 0 18 4.03724 18 9C18 13.9628 13.9628 18 9 18ZM9 1.1739C4.68457 1.1739 1.1739 4.68457 1.1739 9C1.1739 13.3154 4.68457 16.8261 9 16.8261C13.3154 16.8261 16.8261 13.3154 16.8261 9C16.8261 4.68457 13.3154 1.1739 9 1.1739Z" fill="white"/>
<path d="M14.4783 8.99998C14.4783 9.32402 14.7412 9.58695 15.0652 9.58695H15.6225C15.3409 12.7869 12.787 15.3409 9.58699 15.6224V15.0652C9.58699 14.7412 9.32405 14.4782 9.00002 14.4782C8.67598 14.4782 8.41305 14.7412 8.41305 15.0652V15.6224C5.21309 15.3409 2.65913 12.7869 2.37756 9.58695H2.93479C3.25883 9.58695 3.52176 9.32402 3.52176 8.99998C3.52176 8.67595 3.25883 8.41301 2.93479 8.41301H2.37756C2.65909 5.21305 5.21306 2.65909 8.41305 2.37753V2.93475C8.41305 3.25879 8.67598 3.52172 9.00002 3.52172C9.32405 3.52172 9.58699 3.25879 9.58699 2.93475V2.37753C12.7869 2.65906 15.3409 5.21302 15.6225 8.41301H15.0652C14.7412 8.41301 14.4783 8.67595 14.4783 8.99998ZM12.0561 11.2696L10.4009 7.9474C10.3708 7.8722 10.2453 7.73488 10.1309 7.68918L6.80866 6.02218C6.58563 5.90479 6.31566 5.95176 6.12782 6.12785C5.95169 6.31562 5.90479 6.58569 6.02214 6.80873L7.68908 10.1309C7.73482 10.2452 7.87256 10.371 7.94737 10.4009L11.2696 12.0561C11.4926 12.1618 11.7626 12.1265 11.9387 11.9387C12.1265 11.7626 12.1617 11.4926 12.0561 11.2696Z" fill="white"/>
</svg>
