<svg width="40" height="62" viewBox="0 0 40 62" fill="none" xmlns="http://www.w3.org/2000/svg">
<path d="M21.3066 0H18.2383C11.8975 0 6.93054 5.1674 6.93054 11.7641V28.2346C6.93054 34.832 11.8975 40 18.2383 40H21.3066C27.7926 40 33.0695 34.7221 33.0695 28.2346V11.7641C33.0695 5.2774 27.7926 0 21.3066 0ZM19.8813 6.16493H20.1187C20.4897 6.16493 20.7917 6.46683 20.7917 6.83795V11.6292C20.7917 12.0004 20.4897 12.3023 20.1187 12.3023H19.8813C19.5103 12.3023 19.2083 12.0004 19.2083 11.6292V6.83795C19.2083 6.46683 19.5103 6.16493 19.8813 6.16493ZM31.5311 28.2346C31.5311 33.8738 26.9444 38.4617 21.3066 38.4617H18.2383C12.76 38.4617 8.46889 33.9694 8.46889 28.2346V11.7641C8.46889 6.03013 12.7601 1.53835 18.2383 1.53835H19.2214V4.72724C18.3233 5.00867 17.6699 5.84841 17.6699 6.83805V11.6293C17.6699 12.6189 18.3233 13.4587 19.2214 13.74V17.698C19.2214 18.1228 19.5658 18.4672 19.9905 18.4672C20.4153 18.4672 20.7597 18.1228 20.7597 17.698V13.7456C21.6674 13.4701 22.3301 12.6258 22.3301 11.6293V6.83795C22.3301 5.84149 21.6674 4.99713 20.7597 4.72157V1.53835H21.3066C26.9444 1.53835 31.5311 6.1256 31.5311 11.7641V28.2346Z" fill="#00EAC3"/>
<path d="M19.2929 61.7071C19.6834 62.0976 20.3166 62.0976 20.7071 61.7071L27.0711 55.3431C27.4616 54.9526 27.4616 54.3195 27.0711 53.9289C26.6805 53.5384 26.0474 53.5384 25.6569 53.9289L20 59.5858L14.3431 53.9289C13.9526 53.5384 13.3195 53.5384 12.9289 53.9289C12.5384 54.3195 12.5384 54.9526 12.9289 55.3431L19.2929 61.7071ZM19 42L19 61L21 61L21 42L19 42Z" fill="#00EAC3"/>
</svg>
